<svg width="597" height="289" viewBox="0 0 597 289" fill="none" xmlns="http://www.w3.org/2000/svg">
<path d="M100.972 89.25H30.054L65.513 10.9121L100.972 89.25Z" stroke="black" stroke-width="9"/>
<path d="M119 85H14V94H119V85Z" fill="black"/>
<path d="M119 208V103H109V208H119Z" fill="black"/>
<path d="M226 262V155H216V262H226Z" fill="black"/>
<path d="M268 136V48H258V136H268Z" fill="black"/>
<path d="M156 134V27H146V134H156Z" fill="black"/>
<path d="M202 27H146V37H202V27Z" fill="black"/>
<path d="M202 124H146V134H202V124Z" fill="black"/>
<path d="M202 78H146V88H202V78Z" fill="black"/>
<path d="M156 262V155H146V262H156Z" fill="black"/>
<path d="M202 155H146V165H202V155Z" fill="black"/>
<path d="M202 252H146V262H202V252Z" fill="black"/>
<path d="M273 263V178H263V263H273Z" fill="black"/>
<path d="M226 135V48H216V135H226Z" fill="black"/>
<path d="M297 136V27H287V136H297Z" fill="black"/>
<path d="M294.071 103.159L341.159 56.071L334.088 48.9999L287 96.0876L294.071 103.159Z" fill="black"/>
<path d="M294.071 82.0003L341.159 129.088L334.088 136.159L287 89.0713L294.071 82.0003Z" fill="black"/>
<path d="M268 48H216V58H268V48Z" fill="black"/>
<path d="M400 173H351V183H400V173Z" fill="black"/>
<path d="M337 261V177H327V261H337Z" fill="black"/>
<path d="M297 262V204H287V262H297Z" fill="black"/>
<path d="M337 252H288V262H337V252Z" fill="black"/>
<path d="M337 175H288V185H337V175Z" fill="black"/>
<path d="M336 204H287V214H336V204Z" fill="black"/>
<path d="M364 136V48H354V136H364Z" fill="black"/>
<path d="M364 27V38H354V27H364Z" fill="black"/>
<path d="M273 176H216V186H273V176Z" fill="black"/>
<path d="M381 262V155H371V262H381Z" fill="black"/>
<path d="M597 173H548V183H597V173Z" fill="black"/>
<path d="M597 252H568V262H597V252Z" fill="black"/>
<path d="M400 252H371V262H400V252Z" fill="black"/>
<path d="M578 262V155H568V262H578Z" fill="black"/>
<path d="M424 263V155H414V263H424Z" fill="black"/>
<path d="M470 263V178H460V263H470Z" fill="black"/>
<path d="M470 253H414V263H470V253Z" fill="black"/>
<path d="M470 176H414V186H470V176Z" fill="black"/>
<path d="M534 262V178H524V262H534Z" fill="black"/>
<path d="M494 263V176H484V263H494Z" fill="black"/>
<path d="M534 253H485V263H534V253Z" fill="black"/>
<path d="M534 176H485V186H534V176Z" fill="black"/>
<path d="M100 208V103H90V208H100Z" fill="black"/>
<path d="M81 263V158H71V263H81Z" fill="black"/>
<path d="M62 276L62 171H52L52 276H62Z" fill="black"/>
<path d="M43 289L43 184H33L33 289H43Z" fill="black"/>
<path d="M24 289L24 184H14L14 289H24Z" fill="black"/>
<path d="M7.79427 152.548L33.9473 107.25L26.153 102.75L3.91603e-05 148.048L7.79427 152.548Z" fill="black"/>
<path d="M21.7946 170.539L29.6301 156.967L21.8359 152.467L14.0003 166.039L21.7946 170.539Z" fill="black"/>
<path d="M2.47955e-05 157H29.65V148H2.47955e-05V157Z" fill="black"/>
<path d="M14 175H43V166H14V175Z" fill="black"/>
<path d="M71 112H43V103H71V112Z" fill="black"/>
<path d="M35.673 66.9219L9.20593 55.0687L5.0001 64.1706L31.4671 76.0238L35.673 66.9219Z" fill="black"/>
<path d="M43.4494 49.5578L16.9824 37.7046L12.7766 46.8064L39.2436 58.6596L43.4494 49.5578Z" fill="black"/>
<path d="M51.2152 32.2173L24.7482 20.3641L20.5423 29.466L47.0094 41.3191L51.2152 32.2173Z" fill="black"/>
<path d="M58.9918 14.8532L32.5248 3L28.319 12.1019L54.786 23.955L58.9918 14.8532Z" fill="black"/>
<path d="M93.542 62.5578L120.009 50.7046L124.215 59.8064L97.7478 71.6596L93.542 62.5578Z" fill="black"/>
<path d="M85.776 45.2173L112.243 33.3641L116.449 42.466L89.9818 54.3192L85.776 45.2173Z" fill="black"/>
<path d="M78 27.8532L104.467 16L108.673 25.1019L82.2058 36.955L78 27.8532Z" fill="black"/>
</svg>
